<svg width="27" height="27" viewBox="0 0 27 27" fill="none" xmlns="http://www.w3.org/2000/svg">
<g clip-path="url(#clip0_148_22)">
<path d="M13.5 27C20.5416 27 26.25 21.2916 26.25 14.25C26.25 7.20837 20.5416 1.5 13.5 1.5C6.45837 1.5 0.75 7.20837 0.75 14.25C0.75 21.2916 6.45837 27 13.5 27Z" fill="#616161"/>
<path d="M13.5 25.5C20.5416 25.5 26.25 19.7916 26.25 12.75C26.25 5.70837 20.5416 0 13.5 0C6.45837 0 0.75 5.70837 0.75 12.75C0.75 19.7916 6.45837 25.5 13.5 25.5Z" fill="#F3F3F3"/>
<path d="M13.5 24C19.299 24 24 19.299 24 13.5C24 7.70101 19.299 3 13.5 3C7.70101 3 3 7.70101 3 13.5C3 19.299 7.70101 24 13.5 24Z" fill="#FFE8B6"/>
<path d="M13.5 23.25C19.299 23.25 24 18.549 24 12.75C24 6.95101 19.299 2.25 13.5 2.25C7.70101 2.25 3 6.95101 3 12.75C3 18.549 7.70101 23.25 13.5 23.25Z" fill="#CCCCCB"/>
<path d="M7.15725 8.14199C7.15725 7.73324 7.5585 7.56974 7.5585 7.56974L13.467 4.79474L19.4318 7.56974C19.4318 7.56974 19.8428 7.66124 19.8428 8.14499V8.62574H7.15725V8.14199Z" fill="#FFE8B6"/>
<path d="M19.4468 9.62701C19.4468 9.18901 19.068 8.83426 18.6015 8.83426H8.34675C7.8795 8.83426 7.554 9.18901 7.554 9.62701C7.554 9.92476 7.707 10.1813 7.95075 10.317V10.8165H9.53625V10.4198H11.1218V10.8165H12.7073V10.4198H14.2928V10.8165H15.8783V10.4198H17.4638V10.8165H19.05V10.2968C19.2878 10.1558 19.4468 9.90901 19.4468 9.62701ZM20.6355 18C20.6355 18.1577 20.5728 18.309 20.4613 18.4206C20.3498 18.5321 20.1985 18.5948 20.0408 18.5948H6.95925C6.80151 18.5948 6.65024 18.5321 6.5387 18.4206C6.42716 18.309 6.3645 18.1577 6.3645 18C6.3645 17.8423 6.42716 17.691 6.5387 17.5795C6.65024 17.4679 6.80151 17.4053 6.95925 17.4053H20.0415C20.3693 17.4053 20.6355 17.6715 20.6355 18Z" fill="#616161"/>
<path d="M19.8428 9.14999C19.8428 9.25521 19.801 9.35612 19.7265 9.43053C19.6521 9.50493 19.5512 9.54674 19.446 9.54674H7.55325C7.45225 9.54052 7.35741 9.49602 7.28808 9.42229C7.21876 9.34857 7.18016 9.25118 7.18016 9.14999C7.18016 9.04879 7.21876 8.9514 7.28808 8.87768C7.35741 8.80395 7.45225 8.75945 7.55325 8.75323L19.446 8.75549C19.498 8.75529 19.5495 8.76534 19.5975 8.78507C19.6456 8.8048 19.6893 8.83381 19.7262 8.87045C19.763 8.9071 19.7923 8.95065 19.8123 8.99861C19.8323 9.04658 19.8427 9.09802 19.8428 9.14999ZM9.1395 9.61049H17.8613V10.5H9.1395V9.61049Z" fill="#616161"/>
<path d="M9.5355 15.6218C9.5355 16.0598 9.2985 16.4145 9.00675 16.4145H8.478C8.18625 16.4145 7.94925 16.0598 7.94925 15.6218V9.61126C7.94925 9.17326 8.18625 8.81851 8.478 8.81851H9.00675C9.2985 8.81851 9.5355 9.17326 9.5355 9.61126V15.6218ZM19.05 15.6218C19.05 16.0598 18.8137 16.4145 18.5212 16.4145H17.9925C17.7007 16.4145 17.4637 16.0598 17.4637 15.6218V9.61126C17.4637 9.17326 17.7 8.81851 17.9925 8.81851H18.5212C18.813 8.81851 19.05 9.17326 19.05 9.61126V15.6218ZM12.7072 15.6218C12.7072 16.0598 12.4703 16.4145 12.1785 16.4145H11.6497C11.358 16.4145 11.121 16.0598 11.121 15.6218V9.61126C11.121 9.17326 11.358 8.81851 11.6497 8.81851H12.1785C12.4703 8.81851 12.7072 9.17326 12.7072 9.61126V15.6218ZM15.8782 15.6218C15.8782 16.0598 15.6412 16.4145 15.3495 16.4145H14.8215C14.5297 16.4145 14.2927 16.0598 14.2927 15.6218V9.61126C14.2927 9.17326 14.5297 8.81851 14.8215 8.81851H15.3495C15.6412 8.81851 15.8782 9.17326 15.8782 9.61126V15.6218Z" fill="white"/>
<path d="M19.4468 16.0178C19.4468 16.4558 19.092 16.8105 18.654 16.8105H8.34675C8.1365 16.8105 7.93486 16.727 7.78619 16.5783C7.63752 16.4296 7.554 16.228 7.554 16.0178C7.554 15.8075 7.63752 15.6059 7.78619 15.4572C7.93486 15.3085 8.1365 15.225 8.34675 15.225H18.654C19.0913 15.225 19.4468 15.5798 19.4468 16.0178Z" fill="#F3F3F3"/>
<path d="M20.2395 16.8105C20.2395 17.2485 19.8847 17.6033 19.4467 17.6033H7.55325C7.343 17.6033 7.14136 17.5197 6.99269 17.3711C6.84402 17.2224 6.7605 17.0208 6.7605 16.8105C6.7605 16.6003 6.84402 16.3986 6.99269 16.25C7.14136 16.1013 7.343 16.0178 7.55325 16.0178H19.446C19.884 16.0178 20.2395 16.3725 20.2395 16.8105Z" fill="white"/>
<path d="M20.6355 17.4052C20.6355 17.563 20.5728 17.7143 20.4613 17.8258C20.3498 17.9373 20.1985 18 20.0408 18H6.95925C6.88115 18 6.80381 17.9846 6.73165 17.9547C6.65949 17.9248 6.59393 17.881 6.5387 17.8258C6.48347 17.7706 6.43966 17.705 6.40977 17.6328C6.37989 17.5607 6.3645 17.4833 6.3645 17.4052C6.3645 17.3271 6.37989 17.2498 6.40977 17.1776C6.43966 17.1055 6.48347 17.0399 6.5387 16.9847C6.59393 16.9295 6.65949 16.8856 6.73165 16.8558C6.80381 16.8259 6.88115 16.8105 6.95925 16.8105H20.0415C20.3693 16.8105 20.6355 17.0767 20.6355 17.4052Z" fill="white"/>
<path d="M19.4468 9.2145C19.4468 8.7765 19.068 8.42175 18.6015 8.42175H8.34675C7.8795 8.42175 7.554 8.7765 7.554 9.2145C7.554 9.51225 7.707 9.76875 7.95075 9.9045V10.404H9.53625V10.0073H11.1218V10.404H12.7073V10.0073H14.2928V10.404H15.8783V10.0073H17.4638V10.404H19.05V9.88425C19.2878 9.74325 19.4468 9.4965 19.4468 9.2145Z" fill="#F3F3F3"/>
<path d="M7.15725 8.59725C7.15725 8.1885 7.5585 8.025 7.5585 8.025L13.467 5.25L19.4318 8.025C19.4318 8.025 19.8428 8.1165 19.8428 8.60025V8.8185H7.15725V8.59725Z" fill="white"/>
<path d="M13.5 6.25726C13.5 6.25726 9.40875 8.18551 9.00075 8.35951C8.592 8.53276 8.7285 8.81776 9.0015 8.81776H17.979C18.4005 8.81776 18.3007 8.49601 17.9662 8.32201C17.6317 8.14876 13.5 6.25726 13.5 6.25726Z" fill="#CCCCCB"/>
<path d="M19.8428 8.81774C19.8428 8.92296 19.801 9.02388 19.7265 9.09828C19.6521 9.17269 19.5512 9.21449 19.446 9.21449H7.55325C7.45225 9.20828 7.35741 9.16377 7.28808 9.09005C7.21876 9.01633 7.18016 8.91894 7.18016 8.81774C7.18016 8.71654 7.21876 8.61915 7.28808 8.54543C7.35741 8.47171 7.45225 8.4272 7.55325 8.42099L19.446 8.42324C19.498 8.42304 19.5495 8.4331 19.5975 8.45282C19.6456 8.47255 19.6893 8.50157 19.7262 8.53821C19.763 8.57485 19.7923 8.6184 19.8123 8.66637C19.8323 8.71433 19.8427 8.76577 19.8428 8.81774Z" fill="white"/>
</g>
<defs>
<clipPath id="clip0_148_22">
<rect width="27" height="27" fill="white"/>
</clipPath>
</defs>
</svg>
