<svg width="79" height="79" viewBox="0 0 79 79" fill="none" xmlns="http://www.w3.org/2000/svg">
<path d="M46.0833 19.75H19.75C16.6822 19.75 15.1483 19.75 13.9369 20.2503C13.1382 20.5815 12.4126 21.0668 11.8015 21.6785C11.1904 22.2902 10.7058 23.0162 10.3753 23.8152C9.875 25.0233 9.875 26.5572 9.875 29.625C12.494 29.625 15.0058 30.6654 16.8577 32.5173C18.7096 34.3692 19.75 36.881 19.75 39.5C19.75 42.119 18.7096 44.6308 16.8577 46.4827C15.0058 48.3346 12.494 49.375 9.875 49.375C9.875 52.4428 9.875 53.9767 10.3753 55.1848C10.7058 55.9838 11.1904 56.7098 11.8015 57.3215C12.4126 57.9332 13.1382 58.4185 13.9369 58.7497C15.1483 59.25 16.6822 59.25 19.75 59.25H46.0833M46.0833 19.75H59.25C62.3178 19.75 63.8517 19.75 65.0598 20.2503C65.8591 20.5812 66.5853 21.0663 67.197 21.678C67.8087 22.2897 68.2938 23.0159 68.6247 23.8152C69.125 25.0233 69.125 26.5572 69.125 29.625C66.506 29.625 63.9942 30.6654 62.1423 32.5173C60.2904 34.3692 59.25 36.881 59.25 39.5C59.25 42.119 60.2904 44.6308 62.1423 46.4827C63.9942 48.3346 66.506 49.375 69.125 49.375C69.125 52.4428 69.125 53.9767 68.6247 55.1848C68.2938 55.9841 67.8087 56.7103 67.197 57.322C66.5853 57.9337 65.8591 58.4188 65.0598 58.7497C63.8517 59.25 62.3178 59.25 59.25 59.25H46.0833M46.0833 19.75V59.25" stroke="#FE3092" stroke-width="3" stroke-linecap="round" stroke-linejoin="round"/>
</svg>
