<svg width="17" height="18" viewBox="0 0 17 18" fill="none" xmlns="http://www.w3.org/2000/svg">
<path d="M9.24128 0.445292C8.98469 0.212835 8.64497 0.083313 8.29186 0.083313C7.93875 0.083313 7.59904 0.212835 7.34244 0.445292L0.648148 6.50779C0.443175 6.69365 0.279964 6.91766 0.168514 7.1661C0.0570633 7.41453 -0.000278568 7.68215 1.01748e-06 7.95256V15.3287C0.000367381 15.8553 0.21893 16.3602 0.607647 16.7325C0.996364 17.1047 1.52342 17.3138 2.07297 17.3138H4.14593C4.69572 17.3138 5.22298 17.1045 5.61174 16.732C6.0005 16.3595 6.2189 15.8542 6.2189 15.3274V12.0167C6.2189 11.8411 6.2917 11.6727 6.42128 11.5485C6.55087 11.4244 6.72662 11.3546 6.90989 11.3546H9.67384C9.8571 11.3546 10.0329 11.4244 10.1624 11.5485C10.292 11.6727 10.3648 11.8411 10.3648 12.0167V15.3274C10.3648 15.8542 10.5832 16.3595 10.972 16.732C11.3607 17.1045 11.888 17.3138 12.4378 17.3138H14.5108C15.0605 17.3138 15.5878 17.1045 15.9766 16.732C16.3653 16.3595 16.5837 15.8542 16.5837 15.3274V7.95124C16.5836 7.68095 16.526 7.41352 16.4143 7.16533C16.3026 6.91713 16.1392 6.69339 15.9342 6.50779L9.24128 0.442643V0.445292Z" fill="#C4C4C4"/>
</svg>
