<svg width="21" height="6" viewBox="0 0 21 6" fill="none" xmlns="http://www.w3.org/2000/svg">
<path d="M5.63231 2.71406C5.63231 3.42976 5.33561 4.11615 4.80748 4.62223C4.27935 5.12831 3.56305 5.41262 2.81616 5.41262C2.06927 5.41262 1.35296 5.12831 0.824833 4.62223C0.296701 4.11615 0 3.42976 0 2.71406C0 1.99836 0.296701 1.31197 0.824833 0.805892C1.35296 0.299814 2.06927 0.0155029 2.81616 0.0155029C3.56305 0.0155029 4.27935 0.299814 4.80748 0.805892C5.33561 1.31197 5.63231 1.99836 5.63231 2.71406V2.71406Z" fill="url(#paint0_linear_156_43)"/>
<path d="M13.3161 2.71406C13.3161 3.42976 13.0194 4.11615 12.4912 4.62223C11.9631 5.12831 11.2468 5.41262 10.4999 5.41262C9.753 5.41262 9.0367 5.12831 8.50857 4.62223C7.98044 4.11615 7.68374 3.42976 7.68374 2.71406C7.68374 1.99836 7.98044 1.31197 8.50857 0.805892C9.0367 0.299814 9.753 0.0155029 10.4999 0.0155029C11.2468 0.0155029 11.9631 0.299814 12.4912 0.805892C13.0194 1.31197 13.3161 1.99836 13.3161 2.71406Z" fill="url(#paint1_linear_156_43)"/>
<path d="M18.1839 5.41262C18.9307 5.41262 19.647 5.12831 20.1752 4.62223C20.7033 4.11615 21 3.42976 21 2.71406C21 1.99836 20.7033 1.31197 20.1752 0.805892C19.647 0.299814 18.9307 0.0155029 18.1839 0.0155029C17.437 0.0155029 16.7207 0.299814 16.1925 0.805892C15.6644 1.31197 15.3677 1.99836 15.3677 2.71406C15.3677 3.42976 15.6644 4.11615 16.1925 4.62223C16.7207 5.12831 17.437 5.41262 18.1839 5.41262Z" fill="url(#paint2_linear_156_43)"/>
<defs>
<linearGradient id="paint0_linear_156_43" x1="2.81616" y1="0.0155029" x2="2.81616" y2="5.41262" gradientUnits="userSpaceOnUse">
<stop stop-color="#FE3092"/>
<stop offset="1" stop-color="#FF6C43"/>
</linearGradient>
<linearGradient id="paint1_linear_156_43" x1="10.4999" y1="0.0155029" x2="10.4999" y2="5.41262" gradientUnits="userSpaceOnUse">
<stop stop-color="#FE3092"/>
<stop offset="1" stop-color="#FF6C43"/>
</linearGradient>
<linearGradient id="paint2_linear_156_43" x1="18.1839" y1="0.0155029" x2="18.1839" y2="5.41262" gradientUnits="userSpaceOnUse">
<stop stop-color="#FE3092"/>
<stop offset="1" stop-color="#FF6C43"/>
</linearGradient>
</defs>
</svg>
