<svg width="78" height="79" viewBox="0 0 78 79" fill="none" xmlns="http://www.w3.org/2000/svg">
<path d="M39 62.5417C44.3848 62.5417 48.75 58.1205 48.75 52.6667C48.75 47.2129 44.3848 42.7917 39 42.7917C33.6152 42.7917 29.25 47.2129 29.25 52.6667C29.25 58.1205 33.6152 62.5417 39 62.5417Z" stroke="#FF6948" stroke-width="3"/>
<path d="M29.6173 52.535L26.2373 55.9583L21.4338 60.6226C20.3808 61.6463 19.8543 62.1565 19.6723 62.591C19.4676 63.0532 19.4408 63.576 19.5971 64.0571C19.7535 64.5382 20.0816 64.9428 20.5173 65.1915C20.9138 65.4186 21.632 65.4877 23.062 65.6325C23.868 65.7115 24.2743 65.751 24.6123 65.8728C24.9799 66.0014 25.3155 66.2093 25.5961 66.4821C25.8766 66.7549 26.0954 67.0861 26.2373 67.4528C26.364 67.782 26.4063 68.1737 26.4875 68.9604C26.6338 70.3495 26.7085 71.044 26.9425 71.4292C27.4755 72.308 28.6033 72.6537 29.6205 72.2521C30.0658 72.071 30.5923 71.5608 31.6453 70.5404L39 63.3975L46.3548 70.5404C47.4078 71.5608 47.9343 72.071 48.3795 72.2521C49.3968 72.6537 50.5245 72.308 51.0575 71.4292C51.2915 71.044 51.3663 70.3495 51.5125 68.9604C51.5938 68.1737 51.636 67.782 51.7628 67.4528C51.9048 67.0862 52.1236 66.7551 52.4042 66.4823C52.6847 66.2096 53.0203 66.0016 53.3878 65.8728C53.729 65.751 54.132 65.7115 54.938 65.6325C56.368 65.491 57.0863 65.4186 57.4828 65.1915C57.9184 64.9428 58.2465 64.5382 58.4029 64.0571C58.5592 63.576 58.5324 63.0532 58.3278 62.591C58.1458 62.1565 57.6193 61.6463 56.5663 60.6226L51.7595 55.9583L48.75 52.907" stroke="#FF6948" stroke-width="3"/>
<path d="M56.29 59.2368C62.699 59.1677 66.274 58.7595 68.6433 56.3566C71.5 53.4665 71.5 48.8088 71.5 39.5V29.625M22.75 59.2434C15.6813 59.2039 11.8527 58.8879 9.35675 56.3566C6.5 53.4665 6.5 48.8088 6.5 39.5V26.3333C6.5 17.0245 6.5 12.3668 9.35675 9.47671C12.2102 6.58333 16.809 6.58333 26 6.58333H52C61.191 6.58333 65.7898 6.58333 68.6433 9.47671C70.2358 11.0896 70.941 13.249 71.253 16.4583M29.25 19.75H48.75M22.75 31.2708H29.25M55.25 31.2708H40.625" stroke="#FF6948" stroke-width="3" stroke-linecap="round"/>
</svg>
