<svg width="79" height="78" viewBox="0 0 79 78" fill="none" xmlns="http://www.w3.org/2000/svg">
<path d="M31.2708 69.875V60.125C31.2708 57.0862 31.2708 55.5685 31.9325 54.4375C32.3658 53.6965 32.9891 53.0811 33.7396 52.6533C34.8851 52 36.4223 52 39.5 52C42.5777 52 44.1149 52 45.2604 52.6533C46.011 53.0811 46.6342 53.6965 47.0675 54.4375C47.7292 55.5685 47.7292 57.0862 47.7292 60.125V69.875M69.125 71.5H29.625M9.875 71.5H18.1042M62.5417 71.5V48.75M16.4583 71.5V48.75" stroke="#F24E1E" stroke-width="3" stroke-linecap="round"/>
<path d="M39.5 6.5H24.5953C20.6355 6.5 18.6572 6.5 17.0673 7.47175C15.4741 8.44025 14.5887 10.1887 12.821 13.6857L8.19625 25.22C7.12975 27.885 6.19492 31.0245 7.99217 33.2767C8.83884 34.3396 10.0001 35.1152 11.3143 35.4957C12.6285 35.8761 14.0302 35.8425 15.3241 35.3993C16.618 34.9562 17.7397 34.1257 18.533 33.0235C19.3263 31.9213 19.7517 30.6022 19.75 29.25C19.75 30.9739 20.4436 32.6272 21.6782 33.8462C22.9128 35.0652 24.5873 35.75 26.3333 35.75C28.0793 35.75 29.7538 35.0652 30.9884 33.8462C32.2231 32.6272 32.9167 30.9739 32.9167 29.25C32.9167 30.9739 33.6103 32.6272 34.8449 33.8462C36.0795 35.0652 37.754 35.75 39.5 35.75C41.246 35.75 42.9205 35.0652 44.1551 33.8462C45.3897 32.6272 46.0833 30.9739 46.0833 29.25C46.0833 30.9739 46.7769 32.6272 48.0115 33.8462C49.2462 35.0652 50.9207 35.75 52.6667 35.75C54.4127 35.75 56.0872 35.0652 57.3218 33.8462C58.5564 32.6272 59.25 30.9739 59.25 29.25C59.2498 30.6011 59.6761 31.9187 60.4695 33.0195C61.2629 34.1204 62.384 34.9497 63.6769 35.3923C64.9699 35.8349 66.3703 35.8686 67.6836 35.4889C68.9969 35.1092 70.1577 34.3348 71.0045 33.2735C72.8018 31.0212 71.867 27.8817 70.8005 25.2167L66.179 13.6857C64.4113 10.1887 63.5259 8.44025 61.9327 7.47175C60.3428 6.5 58.3645 6.5 54.4047 6.5H52.6667" stroke="#F24E1E" stroke-width="3" stroke-linecap="round" stroke-linejoin="round"/>
</svg>
