<svg width="79" height="79" viewBox="0 0 79 79" fill="none" xmlns="http://www.w3.org/2000/svg">
<path d="M69.0098 23.0417C68.753 16.8797 67.9301 13.1008 65.2672 10.4412C61.4126 6.58333 55.2045 6.58333 42.7917 6.58333H36.2083C23.7955 6.58333 17.5874 6.58333 13.7328 10.4412C9.875 14.2957 9.875 20.5038 9.875 32.9167V46.0833C9.875 58.4962 9.875 64.7043 13.7328 68.5588C17.5874 72.4167 23.7955 72.4167 36.2083 72.4167H42.7917C55.2045 72.4167 61.4126 72.4167 65.2672 68.5588C69.125 64.7043 69.125 58.4962 69.125 46.0833V36.2083" stroke="#FE3092" stroke-width="3" stroke-linecap="round"/>
<path d="M19.75 39.5C19.75 34.8456 19.75 32.5184 21.1983 31.0733C22.6401 29.625 24.9673 29.625 29.625 29.625H49.375C54.0294 29.625 56.3566 29.625 57.8017 31.0733C59.25 32.5184 59.25 34.8456 59.25 39.5V52.6667C59.25 57.3211 59.25 59.6483 57.8017 61.0933C56.3566 62.5417 54.0294 62.5417 49.375 62.5417H29.625C24.9706 62.5417 22.6434 62.5417 21.1983 61.0933C19.75 59.6516 19.75 57.3244 19.75 52.6667V39.5Z" stroke="#FE3092" stroke-width="3"/>
<path d="M23.0417 19.75H39.5" stroke="#FE3092" stroke-width="3" stroke-linecap="round"/>
</svg>
