<svg width="21" height="20" viewBox="0 0 21 20" fill="none" xmlns="http://www.w3.org/2000/svg">
<path d="M10.5 8.52917C9.91542 8.52917 9.44584 8.99875 9.44584 9.58333C9.44584 10.1679 9.91542 10.6375 10.5 10.6375C11.0846 10.6375 11.5542 10.1679 11.5542 9.58333C11.5542 8.99875 11.0846 8.52917 10.5 8.52917ZM10.5 0C5.21001 0 0.916672 4.29333 0.916672 9.58333C0.916672 14.8733 5.21001 19.1667 10.5 19.1667C15.79 19.1667 20.0833 14.8733 20.0833 9.58333C20.0833 4.29333 15.79 0 10.5 0ZM12.5988 11.6821L4.75001 15.3333L8.40126 7.48458L16.25 3.83333L12.5988 11.6821Z" fill="#BDBDBD"/>
</svg>
